<svg xmlns="http://www.w3.org/2000/svg" width="920" height="738" viewBox="0 0 920 738" role="img" aria-labelledby="title desc">
<title id="title">Full-suite benchmark point scores</title>
<desc id="desc">Point scores for complete sixteen-task benchmark runs.</desc>
<style>
text { font-family: -apple-system, BlinkMacSystemFont, 'Segoe UI', sans-serif; fill: #24292f; }
.heading { font-size: 22px; font-weight: 600; }
.label { font-size: 15px; }
.score { font-size: 14px; font-variant-numeric: tabular-nums; }
.track { fill: #d8dee4; }
.bar { fill: #2f6f9f; }
@media (prefers-color-scheme: dark) {
  text { fill: #e6edf3; }
  .track { fill: #30363d; }
  .bar { fill: #58a6d6; }
}
</style>
<text x="24" y="36" class="heading">Full-suite point scores</text>
<text x="24" y="58" class="score">Sixteen tasks, 160 points, one attempt per task</text>
<text x="24" y="92" class="label">GPT-5.5 high</text>
<rect x="250" y="72" width="540" height="26" rx="3" class="track"/>
<rect x="250" y="72" width="438.5" height="26" rx="3" class="bar"/>
<text x="804" y="91" class="score">130/160 (81.2%)</text>
<text x="24" y="140" class="label">Qwen3.7 Plus</text>
<rect x="250" y="120" width="540" height="26" rx="3" class="track"/>
<rect x="250" y="120" width="438.5" height="26" rx="3" class="bar"/>
<text x="804" y="139" class="score">130/160 (81.2%)</text>
<text x="24" y="188" class="label">Kimi K2.7 Code</text>
<rect x="250" y="168" width="540" height="26" rx="3" class="track"/>
<rect x="250" y="168" width="418.5" height="26" rx="3" class="bar"/>
<text x="804" y="187" class="score">124/160 (77.5%)</text>
<text x="24" y="236" class="label">DeepSeek V4 Flash</text>
<rect x="250" y="216" width="540" height="26" rx="3" class="track"/>
<rect x="250" y="216" width="391.5" height="26" rx="3" class="bar"/>
<text x="804" y="235" class="score">116/160 (72.5%)</text>
<text x="24" y="284" class="label">DeepSeek V4 Pro</text>
<rect x="250" y="264" width="540" height="26" rx="3" class="track"/>
<rect x="250" y="264" width="391.5" height="26" rx="3" class="bar"/>
<text x="804" y="283" class="score">116/160 (72.5%)</text>
<text x="24" y="332" class="label">MiMo V2.5</text>
<rect x="250" y="312" width="540" height="26" rx="3" class="track"/>
<rect x="250" y="312" width="391.5" height="26" rx="3" class="bar"/>
<text x="804" y="331" class="score">116/160 (72.5%)</text>
<text x="24" y="380" class="label">Qwen3.6 Plus</text>
<rect x="250" y="360" width="540" height="26" rx="3" class="track"/>
<rect x="250" y="360" width="391.5" height="26" rx="3" class="bar"/>
<text x="804" y="379" class="score">116/160 (72.5%)</text>
<text x="24" y="428" class="label">GLM-5.2</text>
<rect x="250" y="408" width="540" height="26" rx="3" class="track"/>
<rect x="250" y="408" width="384.5" height="26" rx="3" class="bar"/>
<text x="804" y="427" class="score">114/160 (71.2%)</text>
<text x="24" y="476" class="label">MiniMax M3</text>
<rect x="250" y="456" width="540" height="26" rx="3" class="track"/>
<rect x="250" y="456" width="384.5" height="26" rx="3" class="bar"/>
<text x="804" y="475" class="score">114/160 (71.2%)</text>
<text x="24" y="524" class="label">Qwen3.7 Max</text>
<rect x="250" y="504" width="540" height="26" rx="3" class="track"/>
<rect x="250" y="504" width="384.5" height="26" rx="3" class="bar"/>
<text x="804" y="523" class="score">114/160 (71.2%)</text>
<text x="24" y="572" class="label">GLM-5.2 Z Code CLI</text>
<rect x="250" y="552" width="540" height="26" rx="3" class="track"/>
<rect x="250" y="552" width="378.0" height="26" rx="3" class="bar"/>
<text x="804" y="571" class="score">112/160 (70.0%)</text>
<text x="24" y="620" class="label">Kimi K2.6</text>
<rect x="250" y="600" width="540" height="26" rx="3" class="track"/>
<rect x="250" y="600" width="317.5" height="26" rx="3" class="bar"/>
<text x="804" y="619" class="score">94/160 (58.8%)</text>
<text x="24" y="668" class="label">MiMo V2.5 Pro</text>
<rect x="250" y="648" width="540" height="26" rx="3" class="track"/>
<rect x="250" y="648" width="303.5" height="26" rx="3" class="bar"/>
<text x="804" y="667" class="score">90/160 (56.2%)</text>
</svg>
